<svg width="161" height="40" viewBox="0 0 161 40" fill="none" xmlns="http://www.w3.org/2000/svg">
  <rect x="0.0249023" width="160.5" height="40" fill="white"/>
  <path fill-rule="evenodd" clip-rule="evenodd" d="M51.1844 0H47.1719V40H51.1844V0ZM18.0143 26.3998C17.0724 28.5057 14.8264 29.9871 11.9646 29.9871C7.11038 29.9871 4.04932 26.2035 4.04932 20.0819C4.04932 14.0138 7.1285 10.2481 12.0008 10.2481C14.8083 10.2481 16.9819 11.7115 17.9237 13.8354H18.0324V3.93018H23.3214V29.6837H18.1049V26.3998H18.0143ZM18.0686 20.1176C18.0686 16.6374 16.3842 14.4243 13.7578 14.4243C11.0952 14.4243 9.46505 16.6195 9.46505 20.1176C9.46505 23.6335 11.0952 25.793 13.7578 25.793C16.3842 25.793 18.0686 23.6156 18.0686 20.1176ZM35.8011 26.2392C37.7392 26.2392 39.2244 25.2933 39.7135 23.8298H44.5677C43.9881 27.5777 40.5104 30.0941 35.7105 30.0941C29.7333 30.0941 26.147 26.3284 26.147 20.2068C26.147 14.1031 29.7695 10.141 35.5113 10.141C41.1625 10.141 44.7307 13.9068 44.7307 19.7249V21.3133H31.3454V21.6346C31.3454 24.3652 33.1023 26.2392 35.8011 26.2392ZM39.641 18.1187C39.5323 15.6736 37.9203 13.996 35.5656 13.996C33.2472 13.996 31.5808 15.7272 31.3997 18.1187H39.641ZM66.1582 10.2481C63.3507 10.2481 61.1953 11.6402 60.1447 13.8889H60.0361V10.5515H54.8196V35.9302H60.1085V26.4712H60.2172C61.2496 28.6307 63.4232 29.9871 66.2488 29.9871C71.103 29.9871 74.1097 26.2749 74.1097 20.1176C74.1097 13.9424 71.0849 10.2481 66.1582 10.2481ZM64.3831 25.793C61.793 25.793 60.0904 23.5799 60.0904 20.1176C60.0904 16.6909 61.793 14.4243 64.3831 14.4243C67.0276 14.4243 68.694 16.6552 68.694 20.1176C68.694 23.5978 67.0276 25.793 64.3831 25.793ZM82.1699 21.6881C78.4206 20.9028 76.5187 19.0467 76.5187 16.1733C76.5187 12.5325 79.7066 10.141 84.6514 10.141C89.6324 10.141 92.7116 12.6574 92.8203 16.4054H87.9479C87.7849 14.8527 86.6076 13.7997 84.6514 13.7997C82.822 13.7997 81.6085 14.6206 81.6085 15.8878C81.6085 16.8694 82.333 17.5297 84.2891 17.9402L87.6038 18.6363C91.6611 19.4751 93.3275 21.0456 93.3275 23.8476C93.3275 27.6134 89.8317 30.0941 84.8325 30.0941C79.4711 30.0941 76.3738 27.6312 76.0297 23.8655H81.1919C81.5179 25.5431 82.7314 26.4355 84.8325 26.4355C86.8249 26.4355 88.0566 25.6324 88.0566 24.383C88.0566 23.3658 87.3864 22.7946 85.4846 22.3663L82.1699 21.6881Z" fill="url(#paint0_linear)"/>
  <defs>
    <linearGradient id="paint0_linear" x1="104.487" y1="31.5" x2="-17.2792" y2="-6.02995" gradientUnits="userSpaceOnUse">
      <stop offset="0.00949925" stop-color="#5DB9FF"/>
      <stop offset="0.994653" stop-color="#2B69DE"/>
    </linearGradient>
  </defs>
</svg>
